<?xml version="1.0" encoding="UTF-8"?>
<svg id="Layer_2" data-name="Layer 2" xmlns="http://www.w3.org/2000/svg" viewBox="0 0 1332.11 400.03">
  <defs>
    <style>
      .cls-1 {
        letter-spacing: -.01em;
      }

      .cls-2 {
        font-family: CascadiaMono-Regular, 'Cascadia Mono';
        font-variation-settings: 'wght' 400;
      }

      .cls-2, .cls-3, .cls-4, .cls-5, .cls-6, .cls-7, .cls-8, .cls-9, .cls-10 {
        stroke: #505050;
        stroke-linecap: round;
      }

      .cls-2, .cls-3, .cls-4, .cls-5, .cls-7, .cls-8, .cls-9, .cls-10 {
        stroke-linejoin: round;
      }

      .cls-2, .cls-8 {
        font-size: 36.16px;
        stroke-width: 2.67px;
      }

      .cls-2, .cls-8, .cls-9 {
        fill: #515151;
      }

      .cls-3, .cls-4, .cls-5, .cls-6, .cls-7, .cls-10 {
        fill: none;
      }

      .cls-3, .cls-6 {
        stroke-width: 8.93px;
      }

      .cls-4 {
        stroke-width: 5.97px;
      }

      .cls-5 {
        stroke-width: 10.78px;
      }

      .cls-6 {
        stroke-miterlimit: 10;
      }

      .cls-7 {
        stroke-width: 9.93px;
      }

      .cls-8, .cls-11, .cls-9 {
        font-family: Bahnschrift, Bahnschrift;
        font-variation-settings: 'wght' 400, 'wdth' 100;
      }

      .cls-11 {
        font-size: 86.43px;
      }

      .cls-9 {
        font-size: 54.09px;
        stroke-width: 4px;
      }

      .cls-10 {
        stroke-width: 15.69px;
      }
    </style>
  </defs>
  <g id="Layer_1-2" data-name="Layer 1">
    <text class="cls-9" transform="translate(1146.1 332.41)"><tspan x="0" y="0">+</tspan></text>
    <text class="cls-9" transform="translate(357.45 332.41)"><tspan x="0" y="0">+</tspan></text>
    <g>
      <rect class="cls-4" x="114.55" y="299.77" width="94.28" height="94.28" rx="27.33" ry="27.33"/>
      <rect class="cls-4" x="226.12" y="299.77" width="94.28" height="94.28" rx="27.33" ry="27.33"/>
      <rect class="cls-4" x="114.55" y="299.77" width="94.28" height="94.28" rx="27.33" ry="27.33" transform="translate(-185.22 508.6) rotate(-90)"/>
      <rect class="cls-4" x="114.55" y="188.2" width="94.28" height="94.28" rx="27.33" ry="27.33" transform="translate(-73.65 397.03) rotate(-90)"/>
      <rect class="cls-4" x="2.98" y="299.77" width="94.28" height="94.28" rx="27.33" ry="27.33"/>
      <text class="cls-8" transform="translate(137.25 249.8)"><tspan x="0" y="0">W</tspan></text>
      <text class="cls-8" transform="translate(138.35 359.14)"><tspan x="0" y="0">S</tspan></text>
      <text class="cls-8" transform="translate(51.76 359.14)"><tspan x="0" y="0">A</tspan></text>
      <text class="cls-8" transform="translate(251.41 359.14)"><tspan x="0" y="0">D</tspan></text>
      <text class="cls-2" transform="translate(170.25 249.8)"><tspan x="0" y="0">↑</tspan></text>
      <text class="cls-2" transform="translate(185.04 333.46) rotate(-180)"><tspan x="0" y="0">↑</tspan></text>
      <text class="cls-2" transform="translate(28.58 359.14)"><tspan x="0" y="0">←</tspan></text>
      <text class="cls-2" transform="translate(278.99 359.14)"><tspan x="0" y="0">→</tspan></text>
    </g>
    <text class="cls-11" transform="translate(112.14 73.9)"><tspan x="0" y="0">Com</tspan><tspan class="cls-1" x="174.59" y="0">p</tspan><tspan x="220.55" y="0">uter</tspan></text>
    <text class="cls-11" transform="translate(1029.36 73.9)"><tspan x="0" y="0">Mobile</tspan></text>
    <polyline class="cls-10" points="1059.38 261.81 1035.85 238.27 1012.31 261.81"/>
    <line class="cls-10" x1="1035.85" y1="238.27" x2="1035.85" y2="308.87"/>
    <polyline class="cls-10" points="1059.38 348.09 1035.85 371.63 1012.31 348.09"/>
    <line class="cls-10" x1="1035.85" y1="371.63" x2="1035.85" y2="308.87"/>
    <polyline class="cls-10" points="1082.91 332.41 1106.45 308.87 1082.91 285.34"/>
    <line class="cls-10" x1="1106.45" y1="308.87" x2="1035.85" y2="308.87"/>
    <polyline class="cls-10" points="988.78 332.41 965.24 308.87 988.78 285.34"/>
    <line class="cls-10" x1="965.24" y1="308.87" x2="1035.85" y2="308.87"/>
    <g>
      <line class="cls-6" x1="1292.27" y1="274.58" x2="1291.94" y2="292.43"/>
      <line class="cls-6" x1="1309.96" y1="283.83" x2="1309.71" y2="297.22"/>
      <path class="cls-3" d="m1274.5,269.79l8.93.16c2.81.05,7.19,1.92,8.84,4.63l8.93.16c4.18.08,8.85,4.07,8.76,9.09l8.93.16c4.18.08,8.85,4.07,8.76,9.09l-1.02,55.79c-.16,9.03-9.42,27.3-9.53,33.31-.11,6.01-.24,13.39-.24,13.39"/>
      <path class="cls-3" d="m1254.37,394.43s.25-13.68.32-17.85c.08-4.17-9.47-17.41-15.23-23.72-8.05-8.82-9.71-22.38-14.44-29.52-6.27-9.46-13.9-18.76-16.69-23.19-2.79-4.43,9.5-11.57,17.42-6.71,7.92,4.85,12.69,12.02,14.31,13.7,1.62,1.68,6.81,6.41,11.3,6.88,2.31-4.42,4.59-12.6,4.79-17.77.98-25.41,1.14-62.48,1.14-62.48.09-4.93,4.16-8.85,9.09-8.76,4.93.09,8.85,4.16,8.76,9.09l-1.06,58.02"/>
      <path class="cls-5" d="m1289.03,249.41c5.29-5.71,8.54-13.37,8.54-21.76,0-17.67-14.34-32.01-32.01-32.01s-32.01,14.34-32.01,32.01c0,8.66,3.45,16.54,9.05,22.3"/>
      <path class="cls-5" d="m1242.6,274.89c-17.51-8.52-29.57-26.48-29.57-47.25,0-29.01,23.52-52.53,52.53-52.53s52.53,23.52,52.53,52.53c0,12.8-4.57,24.52-12.17,33.63"/>
    </g>
    <path class="cls-3" d="m529.37,394.4l17.62-7.59-24.24-56.27,37.98-4.11-84.65-79.97-.04,116.41,29-24.91,24.31,56.45Z"/>
    <path class="cls-5" d="m511.28,254.19c.54-2.49.83-5.08.83-7.73,0-19.9-16.12-36.03-36.02-36.03s-36.02,16.13-36.02,36.03c0,12.55,6.42,23.6,16.15,30.05"/>
    <path class="cls-7" d="m456.22,301.24c-22.39-8.13-38.39-29.59-38.39-54.78,0-32.18,26.09-58.26,58.26-58.26s58.26,26.08,58.26,58.26c0,8.71-1.91,16.97-5.34,24.39"/>
  </g>
</svg>