<?xml version="1.0" encoding="UTF-8"?>
<svg id="Layer_2" data-name="Layer 2" xmlns="http://www.w3.org/2000/svg" viewBox="0 0 649.17 313.43">
  <defs>
    <style>
      .cls-1, .cls-2 {
        stroke-width: 8.93px;
      }

      .cls-1, .cls-2, .cls-3, .cls-4, .cls-5 {
        fill: none;
        stroke: #505050;
        stroke-linecap: round;
      }

      .cls-1, .cls-3, .cls-4, .cls-5 {
        stroke-linejoin: round;
      }

      .cls-6, .cls-4, .cls-7 {
        isolation: isolate;
      }

      .cls-2 {
        stroke-miterlimit: 10;
      }

      .cls-3 {
        stroke-width: 10.78px;
      }

      .cls-4 {
        stroke-width: 4px;
      }

      .cls-4, .cls-7 {
        font-family: Bahnschrift, Bahnschrift;
        font-size: 54.09px;
        font-variation-settings: 'wght' 400, 'wdth' 100;
      }

      .cls-8 {
        fill: #f4f4f4;
        stroke-width: 0px;
      }

      .cls-5 {
        stroke-width: 11.1px;
      }

      .cls-7 {
        fill: #515151;
      }
    </style>
  </defs>
  <g id="Layer_2-2" data-name="Layer 2">
    <rect class="cls-8" width="649.17" height="313.43"/>
    <g class="cls-6">
      <text class="cls-7" transform="translate(410.61 189.85)"><tspan x="0" y="0">+</tspan></text>
      <text class="cls-4" transform="translate(410.61 189.85)"><tspan x="0" y="0">+</tspan></text>
    </g>
    <g>
      <line class="cls-2" x1="578.92" y1="138.87" x2="578.59" y2="156.72"/>
      <line class="cls-2" x1="596.61" y1="148.12" x2="596.36" y2="161.51"/>
      <path class="cls-1" d="m561.15,134.08l8.93.16c2.81.05,7.19,1.92,8.84,4.63l8.93.16c4.18.08,8.85,4.07,8.76,9.09l8.93.16c4.18.08,8.85,4.07,8.76,9.09l-1.02,55.79c-.16,9.03-9.42,27.3-9.53,33.31s-.24,13.39-.24,13.39"/>
      <path class="cls-1" d="m541.02,258.72s.25-13.68.32-17.85c.08-4.17-9.47-17.41-15.23-23.72-8.05-8.82-9.71-22.38-14.44-29.52-6.27-9.46-13.9-18.76-16.69-23.19-2.79-4.43,9.5-11.57,17.42-6.71,7.92,4.85,12.69,12.02,14.31,13.7,1.62,1.68,6.81,6.41,11.3,6.88,2.31-4.42,4.59-12.6,4.79-17.77.98-25.41,1.14-62.48,1.14-62.48.09-4.93,4.16-8.85,9.09-8.76,4.93.09,8.85,4.16,8.76,9.09l-1.06,58.02"/>
      <path class="cls-3" d="m575.68,113.7c5.29-5.71,8.54-13.37,8.54-21.76,0-17.67-14.34-32.01-32.01-32.01s-32.01,14.34-32.01,32.01c0,8.66,3.45,16.54,9.05,22.3"/>
      <path class="cls-3" d="m529.25,139.18c-17.51-8.52-29.57-26.48-29.57-47.25,0-29.01,23.52-52.53,52.53-52.53s52.53,23.52,52.53,52.53c0,12.8-4.57,24.52-12.17,33.63"/>
    </g>
    <g>
      <circle class="cls-1" cx="101.31" cy="67.3" r="24.2"/>
      <path class="cls-1" d="m135.35,213.34c20.07,3.64,33.55,10.4,33.55,18.15,0,11.6-30.27,21-67.6,21s-67.59-9.4-67.59-21c0-7.74,13.48-14.5,33.54-18.15"/>
      <ellipse class="cls-1" cx="280.13" cy="231.49" rx="67.59" ry="21"/>
      <path class="cls-1" d="m120.88,231.49v-56.23h0c7.99,0,14.47-6.48,14.47-14.47v-38.84c0-6.09-4.94-11.03-11.03-11.03h-46.03c-6.09,0-11.03,4.94-11.03,11.03v38.84c0,7.99,6.48,14.47,14.47,14.47h0v56.23"/>
      <path class="cls-1" d="m148.05,181.19h0s0,0,0,0c22.2-45.6,83.05-48.84,111.55-11.94l2.12,12.35"/>
      <polygon class="cls-5" points="267.21 186.17 259.98 181.14 252.74 176.1 260.72 172.35 268.7 168.61 267.95 177.39 267.21 186.17"/>
    </g>
  </g>
</svg>